PathFileType	4	(X/Y/Z)	C:\Users\dbl\Desktop\20210112(1)\20210112\bx_y_5_901.trc
DataRate	CameraRate	NumFrames	NumMarkers	Units	OrigDataRate	OrigDataStartFrame	OrigNumFrames
50.00	50.00	       6	43	mm	50.00	396	       527
Frame#	Time	Top.Head			R.Acromium			L.Acromium			Sternum			R.ASIS			L.ASIS			V.Sacral			R.Thigh.Upper			R.Thigh.Front			R.Thigh.Rear			R.Knee.Lat			R.Knee.Med			R.Shank.Upper			R.Shank.Front			R.Shank.Rear			R.Ankle.Lat			R.Midfoot.Lat			R.Toe.Lat			R.Toe.Tip			R.Toe.Med			R.Ankle.Med			R.Midfoot.Sup			R.Heel			L.Thigh.Upper			L.Thigh.Front			L.Thigh.Rear			L.Knee.Lat			L.Knee.Med			L.Shank.Upper			L.Shank.Front			L.Shank.Rear			L.Ankle.Lat			L.Midfoot.Lat			L.Toe.Lat			L.Toe.Tip			L.Toe.Med			L.Ankle.Med			L.Midfoot.Sup			L.Heel			origin1 front left			origin2 front right			origin 3 back right			origin 4 back leftt			
		X1	Y1	Z1	X2	Y2	Z2	X3	Y3	Z3	X4	Y4	Z4	X5	Y5	Z5	X6	Y6	Z6	X7	Y7	Z7	X8	Y8	Z8	X9	Y9	Z9	X10	Y10	Z10	X11	Y11	Z11	X12	Y12	Z12	X13	Y13	Z13	X14	Y14	Z14	X15	Y15	Z15	X16	Y16	Z16	X17	Y17	Z17	X18	Y18	Z18	X19	Y19	Z19	X20	Y20	Z20	X21	Y21	Z21	X22	Y22	Z22	X23	Y23	Z23	X24	Y24	Z24	X25	Y25	Z25	X26	Y26	Z26	X27	Y27	Z27	X28	Y28	Z28	X29	Y29	Z29	X30	Y30	Z30	X31	Y31	Z31	X32	Y32	Z32	X33	Y33	Z33	X34	Y34	Z34	X35	Y35	Z35	X36	Y36	Z36	X37	Y37	Z37	X38	Y38	Z38	X39	Y39	Z39	X40	Y40	Z40	X41	Y41	Z41	X42	Y42	Z42	X43	Y43	Z43	

396	7.900	-661.23615	89.44254	1844.97925	-630.46350	-82.06338	1549.33862	-640.23218	271.76019	1544.86658	-571.51807	89.42957	1420.53784	-629.30457	-25.37131	1052.29395	-613.39716	201.85303	1067.89380	-826.11603	89.69434	1047.35693	-685.40405	-89.68402	863.50134	-625.11462	-20.83505	805.66760	-719.71295	-61.27123	708.93311	-735.73328	-37.71125	616.73407	-718.29395	69.16057	576.13452	-748.81299	-33.93454	568.54492	-694.95398	6.29469	524.26984	-792.94867	-39.82765	487.11655	-773.09540	-9.50092	205.11926	-666.86145	-70.83428	159.27620	-624.89008	-81.14698	158.00876	-562.99359	-40.12000	163.35864	-604.65930	17.09039	169.68202	-719.81848	71.02068	219.88017	-676.15216	51.69801	163.75011	-795.33295	52.91972	173.62857	-665.56732	268.06802	878.77667	-613.34943	201.04352	824.79681	-713.85217	266.56256	751.81018	-742.74097	244.80685	640.05737	-712.04901	137.39639	574.62280	-746.21997	241.23230	577.03833	-693.35095	198.92415	535.45685	-786.34021	253.02357	503.66010	-772.12000	224.70883	204.33022	-665.57593	298.83487	160.74240	-628.25958	306.80051	161.91043	-561.93188	260.72098	165.80048	-595.05621	223.08031	173.55247	-713.41693	153.52921	217.77934	-675.83112	174.43916	158.67188	-797.19025	174.78317	182.49316	-528.08844	304.20422	146.49770	-517.84729	-73.20272	142.64609	-876.02136	-78.95969	141.37686	-882.58673	295.99652	144.55453	
397	7.920	-666.49622	88.80254	1846.13599	-634.69177	-81.81034	1550.33984	-643.93140	272.02985	1545.71484	-572.60876	89.68971	1422.17529	-625.20905	-25.65296	1052.46570	-608.85297	201.86523	1068.13684	-821.77374	89.91036	1046.54309	-682.14215	-90.02290	864.11212	-621.18304	-20.41840	805.52765	-715.55469	-61.15281	709.09882	-732.90265	-37.57521	616.82776	-716.33203	69.47519	576.46588	-746.40332	-33.74107	568.68390	-692.82782	6.50229	524.16449	-791.25354	-39.75867	487.59116	-772.84344	-9.18056	205.28139	-666.81641	-70.78844	159.29674	-624.89856	-81.04889	157.94754	-562.79053	-40.18266	163.23988	-604.57764	17.15178	169.48248	-719.34680	71.36507	219.68541	-676.10559	51.68747	163.48851	-795.40521	53.17788	173.94225	-661.13129	267.92252	878.57935	-609.37793	200.77005	824.45831	-710.02917	266.33069	751.95331	-739.71130	244.65309	640.18054	-709.40228	137.20544	574.60620	-743.72534	240.97490	577.14771	-691.08923	198.72205	535.28625	-784.23260	252.73729	503.97498	-771.97321	224.51686	204.45544	-665.53271	298.71402	160.88287	-628.23499	306.77805	162.00327	-561.81512	260.74448	165.82394	-594.86951	222.95177	173.49658	-713.32672	153.37750	217.59492	-675.76624	174.44333	158.52599	-797.06299	174.71246	182.57187	-528.09570	304.21057	146.47885	-517.82288	-73.15176	142.66916	-876.02826	-79.00860	141.30469	-882.56055	295.98514	144.56822	
398	7.940	-671.55701	88.21864	1847.04236	-638.58563	-81.61800	1551.10950	-647.32086	272.30185	1546.33545	-573.92511	89.91772	1423.88574	-621.18127	-25.80149	1052.53137	-604.49652	201.84715	1068.23853	-817.54779	90.11263	1045.84497	-678.96234	-90.33121	864.72260	-617.38043	-20.07151	805.30646	-711.71381	-60.96576	709.20569	-730.28314	-37.41143	616.88434	-714.22168	69.76528	576.70190	-744.09088	-33.51330	568.80975	-690.83899	6.76906	524.01160	-789.58667	-39.63170	488.00232	-772.49213	-8.83991	205.40376	-666.74884	-70.71413	159.33084	-624.90594	-80.92830	157.86151	-562.54706	-40.29613	163.14102	-604.45557	17.17026	169.34439	-718.94055	71.72498	219.51465	-676.02655	51.72240	163.20982	-795.35333	53.43917	174.12184	-656.94318	267.70288	878.31909	-605.59857	200.37184	824.17792	-706.33582	266.08054	751.90717	-736.69879	244.55341	640.29303	-706.76337	137.00018	574.56879	-741.27155	240.74612	577.21515	-688.84515	198.53313	535.07996	-782.17700	252.49088	504.29709	-771.80713	224.36790	204.59329	-665.48260	298.61752	160.97229	-628.16254	306.73419	162.07727	-561.66113	260.79877	165.80772	-594.69775	222.85675	173.44502	-713.19427	153.26700	217.49510	-675.71301	174.38176	158.33128	-796.88849	174.71233	182.63257	-528.10956	304.18677	146.46426	-517.80371	-73.07930	142.72012	-875.96692	-79.05154	141.23970	-882.51996	295.99500	144.59703	
399	7.960	-676.43213	87.67946	1847.72534	-642.21454	-81.45793	1551.67017	-650.44073	272.61783	1546.75793	-575.33319	90.18019	1425.57495	-617.30127	-25.76728	1052.43567	-600.28284	201.81416	1068.20959	-813.46869	90.34186	1045.28259	-675.86536	-90.60803	865.32855	-613.73291	-19.73396	805.01471	-708.33582	-60.76301	709.22070	-727.83179	-37.12827	616.79926	-712.10101	70.03121	576.83380	-741.88477	-33.25099	568.91144	-688.99414	7.12054	523.80676	-787.94458	-39.48421	488.38943	-772.12714	-8.55378	205.51846	-666.67224	-70.63993	159.39111	-624.89996	-80.83424	157.77040	-562.28119	-40.44810	163.04904	-604.31329	17.17227	169.23352	-718.63580	72.06854	219.41803	-675.91333	51.84231	162.97847	-795.21893	53.64590	174.17659	-652.94891	267.46707	878.03430	-602.02551	199.87505	823.91510	-702.77563	265.82660	751.72302	-733.78033	244.49582	640.40540	-704.25940	136.70499	574.51038	-738.91199	240.56418	577.26617	-686.72015	198.38145	534.83575	-780.23834	252.24716	504.58777	-771.63660	224.25755	204.76266	-665.44006	298.56055	161.00172	-628.07294	306.68997	162.11005	-561.49707	260.87366	165.75191	-594.55292	222.78760	173.38612	-713.01630	153.14764	217.39697	-675.65607	174.25095	158.12683	-796.66840	174.70665	182.70070	-528.11530	304.16284	146.45932	-517.80872	-73.01878	142.76349	-875.90094	-79.06410	141.22121	-882.50012	296.03662	144.63029	
400	7.980	-681.12146	87.16668	1848.21667	-645.63690	-81.30260	1552.04553	-653.33801	272.97989	1547.00256	-576.67297	90.47541	1427.11670	-613.59149	-25.63955	1052.20703	-596.16742	201.85057	1068.16003	-809.55029	90.61567	1044.80261	-672.85199	-90.85239	865.92621	-610.25024	-19.39284	804.65118	-705.35114	-60.61111	709.17322	-725.42212	-36.73685	616.56262	-710.09906	70.29324	576.88489	-739.78497	-32.98829	568.99408	-687.26270	7.52357	523.57074	-786.38922	-39.37882	488.77206	-771.82056	-8.35684	205.65410	-666.61090	-70.58633	159.48056	-624.88403	-80.80028	157.69464	-562.02252	-40.61888	162.96242	-604.17572	17.17788	169.14070	-718.39221	72.37175	219.38737	-675.75494	52.04805	162.81691	-795.06403	53.78870	174.17188	-649.06219	267.31436	877.77484	-598.64545	199.36797	823.64972	-699.35852	265.57114	751.45502	-731.02820	244.46655	640.50732	-702.03491	136.21811	574.40179	-736.68317	240.46606	577.31677	-684.76691	198.27255	534.57904	-778.43610	252.02240	504.83063	-771.48663	224.18272	204.93933	-665.41699	298.53348	160.98979	-627.99933	306.66626	162.11557	-561.34869	260.95721	165.68845	-594.44995	222.73314	173.33199	-712.78998	152.97086	217.23505	-675.60083	174.09282	157.95366	-796.45361	174.64336	182.76822	-528.10565	304.15964	146.46391	-517.83789	-72.99114	142.77220	-875.88794	-79.05183	141.21481	-882.51392	296.09937	144.65422	
401	8.000	-685.61359	86.67038	1848.54102	-648.87823	-81.09804	1552.27515	-656.06927	273.38428	1547.11511	-577.89978	90.75762	1428.47888	-610.04761	-25.56230	1051.90833	-592.15088	202.00266	1068.17078	-805.82178	90.91156	1044.30994	-669.92310	-91.06335	866.51141	-606.94934	-19.07215	804.20654	-702.61768	-60.44861	709.07404	-722.94354	-36.35357	616.27710	-708.32269	70.59218	576.90088	-737.80811	-32.75294	569.06189	-685.64172	7.89545	523.34589	-784.95160	-39.32727	489.10989	-771.57941	-8.23431	205.80400	-666.56805	-70.54076	159.56354	-624.86475	-80.80745	157.64435	-561.79688	-40.78987	162.88197	-604.07178	17.18771	169.07373	-718.18091	72.62752	219.36124	-675.57104	52.28859	162.70184	-794.93475	53.90056	174.17300	-645.28442	267.23410	877.50720	-595.45178	198.94865	823.38177	-696.10760	265.36542	751.13782	-728.45062	244.46902	640.59644	-700.13324	135.52386	574.22949	-734.57312	240.45595	577.35718	-682.98383	198.19141	534.32928	-776.73096	251.85968	505.03656	-771.35492	224.14359	205.08087	-665.40796	298.51956	160.97566	-627.95898	306.65805	162.11169	-561.22137	261.03372	165.63597	-594.39294	222.67526	173.28513	-712.53168	152.72591	217.01482	-675.56378	173.95810	157.79367	-796.32318	174.51173	182.81709	-528.08508	304.16803	146.47803	-517.87067	-72.99683	142.75546	-875.91400	-79.03242	141.17426	-882.54358	296.15167	144.65573	
